<svg width="25" height="24" viewBox="0 0 25 24" fill="none" xmlns="http://www.w3.org/2000/svg">
<path d="M15.6992 17H20.6992L19.2943 15.5951C18.9133 15.2141 18.6992 14.6973 18.6992 14.1585V11C18.6992 8.38757 17.0296 6.16509 14.6992 5.34142V5C14.6992 3.89543 13.8038 3 12.6992 3C11.5946 3 10.6992 3.89543 10.6992 5V5.34142C8.36883 6.16509 6.69922 8.38757 6.69922 11V14.1585C6.69922 14.6973 6.48517 15.2141 6.10415 15.5951L4.69922 17H9.69922M15.6992 17V18C15.6992 19.6569 14.3561 21 12.6992 21C11.0424 21 9.69922 19.6569 9.69922 18V17M15.6992 17H9.69922" stroke="#3F3F46" stroke-width="1.2" stroke-linecap="round" stroke-linejoin="round"/>
</svg>
