<svg width="24" height="24" viewBox="0 0 24 24" fill="none" xmlns="http://www.w3.org/2000/svg">
<g clip-path="url(#clip0_336_28438)">
<path opacity="0.4" d="M23.25 20.2505H12.75C12.336 20.2505 12 19.9145 12 19.5005V4.50055C12 4.08655 12.336 3.75055 12.75 3.75055H23.25C23.664 3.75055 24 4.08655 24 4.50055V19.5005C24 19.9145 23.664 20.2505 23.25 20.2505Z" fill="#287A6E"/>
<path d="M15.75 8.25055H12.75C12.336 8.25055 12 7.91455 12 7.50055C12 7.08655 12.336 6.75055 12.75 6.75055H15.75C16.164 6.75055 16.5 7.08655 16.5 7.50055C16.5 7.91455 16.164 8.25055 15.75 8.25055ZM15.75 11.2505H12.75C12.336 11.2505 12 10.9145 12 10.5005C12 10.0865 12.336 9.75055 12.75 9.75055H15.75C16.164 9.75055 16.5 10.0865 16.5 10.5005C16.5 10.9145 16.164 11.2505 15.75 11.2505ZM15.75 14.2505H12.75C12.336 14.2505 12 13.9145 12 13.5005C12 13.0865 12.336 12.7505 12.75 12.7505H15.75C16.164 12.7505 16.5 13.0865 16.5 13.5005C16.5 13.9145 16.164 14.2505 15.75 14.2505ZM15.75 17.2505H12.75C12.336 17.2505 12 16.9145 12 16.5005C12 16.0865 12.336 15.7505 12.75 15.7505H15.75C16.164 15.7505 16.5 16.0865 16.5 16.5005C16.5 16.9145 16.164 17.2505 15.75 17.2505ZM20.25 8.25055H18.75C18.336 8.25055 18 7.91455 18 7.50055C18 7.08655 18.336 6.75055 18.75 6.75055H20.25C20.664 6.75055 21 7.08655 21 7.50055C21 7.91455 20.664 8.25055 20.25 8.25055ZM20.25 11.2505H18.75C18.336 11.2505 18 10.9145 18 10.5005C18 10.0865 18.336 9.75055 18.75 9.75055H20.25C20.664 9.75055 21 10.0865 21 10.5005C21 10.9145 20.664 11.2505 20.25 11.2505ZM20.25 14.2505H18.75C18.336 14.2505 18 13.9145 18 13.5005C18 13.0865 18.336 12.7505 18.75 12.7505H20.25C20.664 12.7505 21 13.0865 21 13.5005C21 13.9145 20.664 14.2505 20.25 14.2505ZM20.25 17.2505H18.75C18.336 17.2505 18 16.9145 18 16.5005C18 16.0865 18.336 15.7505 18.75 15.7505H20.25C20.664 15.7505 21 16.0865 21 16.5005C21 16.9145 20.664 17.2505 20.25 17.2505Z" fill="#287A6E"/>
<path d="M13.2285 0.923022C13.0575 0.780522 12.828 0.719022 12.612 0.764022L0.612001 3.01402C0.439951 3.04581 0.284493 3.13692 0.172674 3.27148C0.0608545 3.40605 -0.000246856 3.57556 7.49592e-07 3.75052V20.2505C7.49592e-07 20.6105 0.256501 20.921 0.612001 20.987L12.612 23.237C12.657 23.246 12.7035 23.2505 12.75 23.2505C12.924 23.2505 13.0935 23.1905 13.2285 23.078C13.3134 23.0076 13.3818 22.9194 13.4287 22.8196C13.4756 22.7198 13.5 22.6108 13.5 22.5005V1.50052C13.5 1.27702 13.401 1.06552 13.2285 0.923022Z" fill="#287A6E"/>
<path d="M10.3148 14.507L7.94327 11.7965L10.3418 8.71249C10.5968 8.38549 10.5368 7.91449 10.2113 7.65949C9.88577 7.40449 9.41477 7.46449 9.15827 7.78999L6.93677 10.646L5.06477 8.50699C4.79027 8.19199 4.31627 8.16349 4.00727 8.43649C3.69527 8.70949 3.66377 9.18349 3.93677 9.49399L5.99927 11.852L3.90827 14.54C3.65327 14.867 3.71327 15.338 4.03877 15.593C4.17108 15.6952 4.33358 15.7506 4.50077 15.7505C4.72427 15.7505 4.94477 15.6515 5.09327 15.461L7.00577 13.001L9.18677 15.4925C9.25669 15.5735 9.34328 15.6385 9.44061 15.6831C9.53794 15.7276 9.64374 15.7506 9.75077 15.7505C9.92627 15.7505 10.1018 15.689 10.2443 15.5645C10.5563 15.2915 10.5878 14.8175 10.3148 14.507Z" fill="#FAFAFA"/>
</g>
<defs>
<clipPath id="clip0_336_28438">
<rect width="24" height="24" fill="white"/>
</clipPath>
</defs>
</svg>
