<svg width="25" height="25" viewBox="0 0 25 25" fill="none" xmlns="http://www.w3.org/2000/svg">
<path d="M3.19922 10.7143L9.77472 15.4111C10.3346 15.8109 11.0639 15.8109 11.6237 15.4111L18.1992 10.7143M4.86589 20.5357H16.5326C17.453 20.5357 18.1992 19.7362 18.1992 18.75V9.82142C18.1992 8.8352 17.453 8.03571 16.5326 8.03571H4.86589C3.94541 8.03571 3.19922 8.8352 3.19922 9.82142V18.75C3.19922 19.7362 3.94541 20.5357 4.86589 20.5357Z" stroke="#3F3F46" stroke-width="1.2" stroke-linecap="round" stroke-linejoin="round"/>
<ellipse cx="17.35" cy="9.14283" rx="7.35005" ry="7.28571" fill="#7F56D9"/>
<path d="M14.575 13V11.867L16.797 9.546C17.237 9.084 17.5743 8.71733 17.809 8.446C18.051 8.16733 18.2196 7.929 18.315 7.731C18.4103 7.533 18.458 7.33133 18.458 7.126C18.458 6.78133 18.348 6.51 18.128 6.312C17.9153 6.114 17.6403 6.015 17.303 6.015C16.951 6.015 16.6466 6.11767 16.39 6.323C16.1333 6.521 15.9463 6.81433 15.829 7.203L14.52 6.796C14.608 6.36333 14.7876 5.98933 15.059 5.674C15.3303 5.35133 15.6603 5.10567 16.049 4.937C16.445 4.761 16.863 4.673 17.303 4.673C17.831 4.673 18.293 4.76833 18.689 4.959C19.0923 5.14967 19.404 5.41733 19.624 5.762C19.8513 6.10667 19.965 6.51 19.965 6.972C19.965 7.26533 19.91 7.555 19.8 7.841C19.69 8.127 19.525 8.42033 19.305 8.721C19.085 9.01433 18.799 9.34433 18.447 9.711L16.522 11.735H20.075V13H14.575Z" fill="white"/>
</svg>
