<svg width="24" height="24" viewBox="0 0 24 24" fill="none" xmlns="http://www.w3.org/2000/svg">
<path d="M16.2004 15.6C16.0413 15.6 15.8886 15.6633 15.7761 15.7758C15.6636 15.8883 15.6004 16.0409 15.6004 16.2001C15.6004 16.3592 15.6636 16.5118 15.7761 16.6243C15.8886 16.7368 16.0413 16.8001 16.2004 16.8001H18.6004C18.7595 16.8001 18.9121 16.7368 19.0247 16.6243C19.1372 16.5118 19.2004 16.3592 19.2004 16.2001C19.2004 16.0409 19.1372 15.8883 19.0247 15.7758C18.9121 15.6633 18.7595 15.6 18.6004 15.6H16.2004ZM2.40039 8.10005C2.40039 7.22483 2.74807 6.38547 3.36694 5.7666C3.98581 5.14773 4.82518 4.80005 5.70039 4.80005H18.3004C19.1756 4.80005 20.015 5.14773 20.6338 5.7666C21.2527 6.38547 21.6004 7.22483 21.6004 8.10005V15.9001C21.6004 16.7753 21.2527 17.6146 20.6338 18.2335C20.015 18.8524 19.1756 19.2001 18.3004 19.2001H5.70039C4.82518 19.2001 3.98581 18.8524 3.36694 18.2335C2.74807 17.6146 2.40039 16.7753 2.40039 15.9001V8.10005ZM5.70039 6.00005C5.14344 6.00005 4.60929 6.2213 4.21547 6.61512C3.82164 7.00895 3.60039 7.54309 3.60039 8.10005V9.60005H20.4004V8.10005C20.4004 7.54309 20.1791 7.00895 19.7853 6.61512C19.3915 6.2213 18.8573 6.00005 18.3004 6.00005H5.70039ZM20.4004 10.8H3.60039V15.9001C3.60039 17.0593 4.54119 18.0001 5.70039 18.0001H18.3004C18.8573 18.0001 19.3915 17.7788 19.7853 17.385C20.1791 16.9911 20.4004 16.457 20.4004 15.9001V10.8Z" fill="#3F3F46"/>
</svg>
