<svg width="25" height="24" viewBox="0 0 25 24" fill="none" xmlns="http://www.w3.org/2000/svg">
<path fill-rule="evenodd" clip-rule="evenodd" d="M16.4341 6.35C16.4341 8.74 14.4941 10.69 12.0941 10.69L12.0841 10.68C9.69414 10.68 7.74414 8.73 7.74414 6.34C7.74414 3.95 9.70414 2 12.0941 2C14.4841 2 16.4341 3.96 16.4341 6.35ZM14.9341 6.34C14.9341 4.78 13.6641 3.5 12.0941 3.5C10.5341 3.5 9.25414 4.78 9.25414 6.34C9.25414 7.9 10.5341 9.18 12.0941 9.18C12.8465 9.17736 13.5674 8.87731 14.0994 8.34527C14.6314 7.81324 14.9315 7.0924 14.9341 6.34Z" fill="#3F3F46"/>
<path d="M12.0235 12.19C14.6935 12.19 16.7835 12.94 18.2335 14.42V14.41C20.2795 16.496 20.2735 19.256 20.2735 19.434V19.439C20.2635 19.849 19.9335 20.179 19.5235 20.179H19.5135C19.315 20.1751 19.126 20.0931 18.9875 19.9509C18.849 19.8086 18.7721 19.6176 18.7735 19.419C18.7735 19.369 18.7735 17.089 17.1535 15.449C15.9935 14.279 14.2635 13.679 12.0235 13.679C9.78349 13.679 8.05349 14.279 6.89349 15.449C5.27349 17.099 5.27349 19.399 5.27349 19.419C5.27349 19.829 4.94349 20.179 4.53349 20.179C4.17349 20.199 3.77349 19.859 3.77349 19.449V19.445C3.77249 19.277 3.76549 16.506 5.81349 14.419C7.26349 12.939 9.35349 12.19 12.0235 12.19Z" fill="#3F3F46"/>
</svg>
