
<svg width="24" height="24" viewBox="0 0 24 24" fill="none" xmlns="http://www.w3.org/2000/svg">
  <g clip-path="url(#clip0_324_2570)">
    <path fill-rule="evenodd" clip-rule="evenodd" d="M22.5 4.5C22.5 6.99 20.49 9 18 9C15.51 9 13.5 6.99 13.5 4.5C13.5 2.01 15.51 0 18 0C20.49 0 22.5 2.01 22.5 4.5ZM18 7.5C19.65 7.5 21 6.1575 21 4.5C21 3.90666 20.8241 3.32664 20.4944 2.83329C20.1648 2.33994 19.6962 1.95542 19.148 1.72836C18.5999 1.5013 17.9967 1.44189 17.4147 1.55764C16.8328 1.6734 16.2982 1.95912 15.8787 2.37868C15.4591 2.79824 15.1734 3.33279 15.0576 3.91473C14.9419 4.49667 15.0013 5.09987 15.2284 5.64805C15.4554 6.19623 15.8399 6.66476 16.3333 6.99441C16.8266 7.32405 17.4067 7.5 18 7.5Z" fill="#3F3F46"/>
    <path d="M13.4107 12.435C14.3902 11.3475 15.9007 10.5 18.0007 10.5C20.1007 10.5 21.6157 11.3475 22.5907 12.435C23.5447 13.4955 24.0022 14.79 24.0022 15.75C24.0022 15.9489 23.9232 16.1397 23.7826 16.2803C23.6419 16.421 23.4511 16.5 23.2522 16.5C23.0533 16.5 22.8626 16.421 22.7219 16.2803C22.5813 16.1397 22.5022 15.9489 22.5022 15.75C22.5022 15.204 22.2097 14.2545 21.4762 13.44C20.7682 12.6525 19.6612 12.0015 17.9962 12.0015C16.3312 12.0015 15.2362 12.654 14.5162 13.44C13.7827 14.2545 13.4902 15.21 13.4902 15.75C13.4902 15.9489 13.4112 16.1397 13.2706 16.2803C13.1299 16.421 12.9391 16.5 12.7402 16.5C12.5413 16.5 12.3506 16.421 12.2099 16.2803C12.0693 16.1397 11.9902 15.9489 11.9902 15.75C11.9902 14.796 12.4477 13.5 13.4017 12.435H13.4107Z" fill="#3F3F46"/>
    <path fill-rule="evenodd" clip-rule="evenodd" d="M10.5 12C10.5 14.49 8.49 16.5 6 16.5C3.51 16.5 1.5 14.49 1.5 12C1.5 9.51 3.51 7.5 6 7.5C8.49 7.5 10.5 9.51 10.5 12ZM6 15C7.65 15 9 13.6575 9 12C9 11.4067 8.82405 10.8266 8.49441 10.3333C8.16476 9.83994 7.69623 9.45542 7.14805 9.22836C6.59987 9.0013 5.99667 8.94189 5.41473 9.05764C4.83279 9.1734 4.29824 9.45912 3.87868 9.87868C3.45912 10.2982 3.1734 10.8328 3.05764 11.4147C2.94189 11.9967 3.0013 12.5999 3.22836 13.148C3.45542 13.6962 3.83994 14.1648 4.33329 14.4944C4.82664 14.8241 5.40666 15 6 15Z" fill="#3F3F46"/>
    <path d="M1.41073 19.95C2.39023 18.8625 3.90073 18.015 6.00073 18.015C8.10073 18.015 9.61573 18.8625 10.5907 19.95C11.5447 21.0105 12.0022 22.305 12.0022 23.265C12.0022 23.4639 11.9232 23.6547 11.7826 23.7953C11.6419 23.936 11.4511 24.015 11.2522 24.015C11.0533 24.015 10.8626 23.936 10.7219 23.7953C10.5813 23.6547 10.5022 23.4639 10.5022 23.265C10.5022 22.719 10.2097 21.7695 9.47623 20.955C8.76823 20.1675 7.66123 19.515 5.99623 19.515C4.33123 19.515 3.23623 20.1675 2.51623 20.955C1.78273 21.7695 1.49023 22.725 1.49023 23.265C1.49023 23.4639 1.41122 23.6547 1.27056 23.7953C1.12991 23.936 0.939147 24.015 0.740234 24.015C0.541322 24.015 0.350557 23.936 0.209904 23.7953C0.069252 23.6547 -0.00976562 23.4639 -0.00976562 23.265C-0.00976562 22.311 0.447734 21.015 1.40173 19.95H1.41073Z" fill="#3F3F46"/>
  </g>
  <defs>
    <clipPath id="clip0_324_2570">
      <rect width="24" height="24" fill="white"/>
    </clipPath>
  </defs>
</svg>
